<?xml version="1.0" standalone="no"?>
<!DOCTYPE svg PUBLIC "-//W3C//DTD SVG 20010904//EN"
 "http://www.w3.org/TR/2001/REC-SVG-20010904/DTD/svg10.dtd">
<svg version="1.0" xmlns="http://www.w3.org/2000/svg"
 width="1024.000000pt" height="1024.000000pt" viewBox="0 0 1024.000000 1024.000000"
 preserveAspectRatio="xMidYMid meet">
<metadata>
Created by potrace 1.11, written by Peter Selinger 2001-2013
</metadata>
<g transform="translate(0.000000,1024.000000) scale(0.100000,-0.100000)"
fill="#000000" stroke="none">
<path d="M5790 9127 c-3 -3 -32 -8 -65 -11 -33 -4 -67 -9 -75 -11 -8 -2 -37
-7 -65 -10 -72 -10 -130 -20 -175 -31 -14 -3 -38 -8 -55 -11 -120 -18 -533
-145 -662 -203 -36 -17 -72 -30 -79 -30 -8 0 -14 -3 -14 -7 0 -5 -20 -16 -45
-26 -45 -19 -286 -154 -295 -166 -3 -3 -24 -19 -48 -34 -94 -61 -264 -215
-351 -317 -11 -14 -32 -38 -46 -55 -24 -28 -86 -119 -130 -190 -54 -86 -151
-305 -160 -360 -2 -11 -10 -40 -18 -65 -19 -54 -44 -185 -52 -260 -3 -30 -8
-73 -10 -95 -9 -76 -3 -331 9 -405 1 -8 6 -41 10 -72 10 -67 21 -74 31 -21 4
21 22 78 41 128 20 49 36 95 38 100 4 19 80 170 105 210 76 123 151 233 186
271 6 6 23 29 40 50 37 48 302 315 370 371 28 23 88 71 135 108 47 36 92 72
101 79 9 7 20 15 25 17 5 2 68 43 141 92 72 48 135 87 138 87 4 0 19 8 33 18
49 34 182 103 182 94 0 -4 -12 -15 -27 -24 -34 -20 -52 -35 -236 -192 -135
-114 -376 -355 -497 -496 -12 -14 -34 -38 -49 -55 -14 -16 -58 -68 -96 -115
-38 -47 -72 -87 -75 -90 -3 -3 -19 -23 -35 -45 -17 -22 -32 -42 -35 -45 -28
-25 -263 -363 -356 -510 -83 -132 -174 -296 -174 -315 0 -3 10 -3 23 0 12 3
38 7 57 9 46 5 236 44 276 57 17 5 42 12 55 15 13 3 29 6 34 8 6 1 30 8 55 15
76 21 250 81 340 118 753 309 1244 858 1436 1608 14 55 27 109 29 120 1 11 6
35 9 53 10 51 15 84 21 137 4 28 9 64 11 80 3 17 7 104 8 195 2 156 -3 238
-14 227z"/>
<path d="M758 8529 c-3 -16 -2 -32 1 -34 3 -3 6 -27 7 -53 1 -40 7 -94 19
-187 19 -132 90 -385 131 -466 7 -15 10 -29 7 -33 -4 -3 0 -6 7 -6 7 0 11 -3
8 -6 -13 -13 215 -425 251 -454 4 -3 20 -23 36 -46 170 -234 478 -484 770
-624 122 -58 255 -109 255 -97 0 8 -111 281 -129 315 -12 23 -21 48 -21 56 0
8 -3 16 -8 18 -4 2 -25 37 -46 78 -42 83 -153 253 -191 294 -14 15 -25 29 -25
32 0 3 -6 11 -12 18 -7 8 -33 37 -58 66 -97 113 -199 219 -330 340 l-45 42 40
-28 c233 -166 484 -417 607 -609 65 -101 144 -260 208 -415 l30 -75 -5 90 c-3
50 -7 101 -10 115 -2 14 -6 43 -9 65 -6 50 -34 190 -46 230 -50 162 -92 270
-145 380 -55 111 -143 260 -180 302 -5 7 -41 49 -79 95 -39 46 -101 110 -139
143 -38 33 -74 65 -81 70 -132 117 -433 280 -688 374 -122 45 -125 45 -130 10z"/>
<path d="M2737 6504 c-1 -1 -40 -5 -87 -8 -109 -8 -147 -13 -245 -32 -44 -8
-91 -18 -105 -20 -72 -14 -254 -72 -365 -116 -253 -101 -552 -287 -744 -463
-109 -99 -273 -271 -304 -318 -9 -14 -22 -30 -29 -38 -26 -26 -151 -204 -156
-221 -2 -10 -7 -18 -11 -18 -3 0 -18 -21 -31 -47 -14 -27 -28 -50 -31 -53 -10
-8 -124 -238 -149 -300 -12 -30 -29 -71 -37 -90 -41 -94 -121 -370 -139 -480
-3 -19 -7 -37 -9 -40 -2 -3 -6 -26 -10 -50 -3 -25 -10 -72 -15 -105 -13 -85
-21 -177 -25 -267 -2 -42 -6 -81 -9 -87 -4 -5 -2 -12 3 -15 4 -3 6 -23 2 -43
-3 -21 -6 -122 -6 -225 0 -104 -2 -188 -5 -189 -3 -1 -45 -2 -94 -3 -70 -2
-91 -5 -101 -19 -11 -15 -12 -26 -6 -73 2 -20 45 -30 124 -28 42 0 77 -2 78
-5 0 -3 2 -217 3 -476 2 -258 6 -492 10 -519 19 -116 69 -220 144 -293 38 -36
105 -81 132 -88 3 -1 12 -5 20 -8 35 -15 140 -34 201 -36 59 -2 66 0 77 21 7
13 11 35 10 50 -3 35 -17 42 -108 53 -111 13 -186 48 -249 115 -22 24 -52 73
-57 95 -2 6 -10 28 -18 50 -8 22 -17 58 -20 80 -5 31 -10 670 -7 916 l1 47
196 -1 c182 -1 197 0 210 18 8 10 14 31 14 46 0 50 -16 54 -221 54 -103 0
-191 3 -194 7 -8 8 -8 480 0 573 13 164 25 263 41 345 2 14 7 39 10 55 2 17 8
39 11 50 4 11 7 27 8 35 1 8 12 53 24 100 76 290 204 575 377 834 10 16 24 36
29 45 6 9 12 18 15 21 3 3 25 32 50 65 102 137 301 342 425 438 6 4 21 17 35
28 67 56 316 219 334 219 4 0 23 11 44 24 20 12 40 24 44 25 4 1 42 17 83 36
42 19 82 35 89 35 6 0 16 4 22 9 17 16 270 93 354 107 14 3 59 11 101 19 272
50 653 35 924 -37 22 -5 49 -12 61 -14 11 -2 54 -15 95 -29 41 -14 79 -27 84
-29 71 -23 239 -101 341 -157 95 -53 245 -151 281 -183 6 -6 26 -22 44 -36 79
-59 273 -246 356 -341 101 -118 333 -459 333 -492 0 -5 9 -22 21 -38 11 -16
22 -35 23 -42 1 -7 10 -27 20 -46 81 -153 212 -573 231 -741 3 -19 6 -45 9
-57 3 -12 8 -53 11 -90 4 -37 9 -79 12 -93 6 -28 12 -900 13 -1657 0 -488 0
-493 21 -514 17 -17 29 -20 57 -15 19 3 40 10 46 16 7 7 11 144 12 413 0 221
4 422 9 447 4 25 8 50 9 55 1 6 4 15 7 20 4 6 9 23 13 40 8 33 55 134 71 151
5 6 17 22 25 35 17 26 101 113 140 144 38 31 190 102 235 111 22 4 47 9 55 11
38 10 168 9 223 -2 138 -26 212 -91 256 -224 29 -89 33 -171 35 -714 1 -466 2
-479 21 -494 22 -16 80 -12 99 7 8 8 11 173 11 543 0 536 -3 597 -29 702 -4
14 -25 64 -43 102 -22 48 -87 118 -136 146 -79 47 -180 70 -302 71 -60 0 -128
-3 -150 -7 -22 -4 -51 -10 -65 -12 -32 -6 -144 -51 -179 -72 -118 -72 -207
-156 -265 -251 -21 -34 -42 -62 -46 -62 -5 0 -6 28 0 50 6 26 -7 903 -14 970
-2 19 -7 60 -10 90 -12 107 -49 311 -71 390 -3 8 -11 40 -19 70 -23 89 -84
267 -128 370 -43 101 -147 312 -158 320 -4 3 -15 21 -25 40 -25 50 -157 242
-224 324 -190 238 -446 463 -698 615 -161 96 -429 221 -476 221 -9 0 -18 4
-21 9 -3 5 -16 11 -28 14 -13 3 -68 17 -122 32 -55 14 -111 28 -125 30 -14 2
-51 9 -81 14 -118 23 -225 32 -393 35 -70 1 -129 1 -130 0z"/>
<path d="M9559 3326 c-2 -2 -42 -6 -87 -10 -46 -3 -93 -11 -103 -17 -10 -5
-19 -7 -19 -4 0 8 -113 -37 -142 -56 -14 -11 -31 -19 -38 -19 -19 0 -164 -152
-183 -192 -23 -49 -34 -54 -30 -15 17 147 3 265 -30 268 -33 4 -73 -3 -85 -15
-11 -11 -13 -197 -13 -1022 0 -555 0 -1030 1 -1056 0 -42 3 -49 28 -61 34 -17
67 -14 90 6 16 14 17 50 16 439 0 233 -4 433 -8 446 -13 38 8 24 33 -23 35
-65 148 -175 220 -214 172 -91 383 -102 576 -30 93 35 147 70 226 149 60 60
141 173 144 200 1 3 8 21 18 40 9 19 18 46 21 60 3 14 9 40 15 59 20 64 25
116 25 246 1 134 -4 192 -24 266 -7 24 -14 51 -16 59 -12 51 -51 134 -100 211
-31 49 -152 169 -170 169 -7 0 -14 4 -16 8 -5 13 -129 70 -167 77 -19 3 -37 8
-41 10 -3 2 -33 7 -65 10 -33 4 -63 9 -66 11 -3 2 -8 2 -10 0z m66 -140 c228
-36 399 -214 451 -471 31 -150 20 -385 -22 -483 -9 -20 -17 -41 -18 -47 -13
-50 -80 -151 -139 -207 -26 -27 -50 -48 -53 -48 -2 0 -22 -12 -44 -26 -21 -14
-73 -36 -115 -49 -64 -20 -94 -24 -174 -21 -53 2 -103 6 -111 8 -209 58 -350
218 -415 470 -14 52 -20 105 -26 213 -2 29 12 157 22 200 31 139 97 261 183
335 46 40 149 100 172 100 11 0 24 4 30 9 21 22 169 31 259 17z"/>
<path d="M1675 3305 c-345 -61 -584 -313 -631 -665 -15 -116 -9 -245 17 -350
11 -46 17 -63 40 -115 7 -16 12 -33 11 -37 -1 -3 5 -12 13 -18 8 -7 15 -17 15
-22 0 -28 172 -228 196 -228 5 0 22 -11 37 -25 15 -14 27 -22 27 -18 0 4 4 3
8 -3 25 -37 240 -109 359 -120 116 -10 259 -2 295 17 9 5 24 9 33 9 65 0 317
137 327 178 6 23 -28 79 -53 87 -18 6 -69 -13 -69 -26 0 -14 -189 -101 -259
-119 -99 -25 -297 -21 -386 7 -11 4 -26 8 -32 9 -7 1 -48 19 -90 40 -108 53
-226 170 -277 274 -51 105 -68 169 -80 308 l-4 42 634 0 c743 0 676 -12 669
117 -3 43 -7 89 -10 103 -2 14 -7 40 -10 59 -6 35 -64 192 -74 201 -3 3 -19
25 -35 50 -70 110 -241 225 -343 232 -7 1 -13 4 -13 8 0 7 -4 7 -140 13 -60 2
-135 -1 -175 -8z m307 -133 c200 -68 321 -230 344 -463 l6 -56 -574 1 -573 1
3 25 c15 115 107 287 190 355 13 11 36 30 50 42 14 12 57 37 96 56 61 30 104
43 201 60 52 10 204 -3 257 -21z"/>
<path d="M3300 3304 c-95 -13 -179 -33 -196 -45 -6 -5 -13 -7 -15 -4 -8 7
-171 -79 -182 -96 -13 -21 18 -85 45 -92 13 -4 57 11 115 39 131 62 247 87
383 81 63 -3 125 -11 155 -22 163 -57 247 -189 254 -400 1 -38 5 -73 7 -77 3
-4 -12 -7 -34 -6 -21 0 -44 -2 -50 -6 -7 -4 -12 -1 -12 6 0 8 -3 9 -8 3 -8
-12 -132 -14 -132 -2 0 5 -4 6 -9 2 -5 -3 -43 -7 -83 -10 -40 -2 -95 -7 -123
-11 -27 -4 -61 -8 -75 -9 -46 -5 -86 -15 -171 -40 -46 -14 -88 -27 -94 -28
-35 -9 -154 -86 -192 -125 -84 -87 -121 -178 -124 -302 -4 -174 76 -304 239
-393 29 -16 52 -25 52 -21 0 3 6 2 13 -3 43 -34 223 -53 335 -36 207 32 327
122 469 349 10 17 11 15 6 -11 -11 -62 -8 -286 4 -297 15 -12 61 -18 91 -11
28 7 45 75 32 131 -1 4 -1 25 -1 47 4 148 3 243 -3 253 -3 6 -2 13 3 17 6 3 7
15 2 28 -5 12 -5 34 0 49 4 16 4 28 -1 28 -5 0 -5 13 0 30 5 17 6 30 2 30 -4
0 -7 16 -7 35 0 19 2 35 5 35 3 0 5 16 5 35 0 19 -4 35 -8 35 -5 0 -5 5 -1 11
8 14 10 177 1 185 -3 3 -2 16 3 29 5 13 6 26 3 29 -4 3 -7 30 -9 59 -7 174
-71 311 -191 408 -36 29 -134 70 -201 84 -93 20 -202 23 -302 9z m558 -749
c15 -15 1 -181 -24 -279 -15 -60 -73 -188 -86 -194 -5 -2 -8 -9 -8 -16 0 -23
-114 -134 -175 -171 -90 -54 -172 -75 -275 -71 -94 4 -105 6 -170 32 -157 61
-250 221 -217 376 41 194 265 308 635 323 46 2 85 5 87 7 5 5 228 -1 233 -7z"/>
<path d="M7615 3309 c-22 -4 -54 -10 -70 -13 -94 -17 -238 -84 -327 -152 -160
-122 -275 -307 -304 -494 -9 -54 -10 -211 -1 -260 21 -126 83 -268 162 -368
40 -52 132 -137 191 -177 81 -56 228 -115 324 -131 172 -28 405 7 534 78 11 7
23 13 26 13 15 1 133 90 177 133 57 56 133 153 133 170 0 7 4 12 8 12 4 0 13
12 19 28 34 77 51 122 47 122 -3 0 0 9 6 21 6 11 13 28 15 37 39 209 18 380
-68 547 -23 44 -44 82 -47 85 -3 3 -13 15 -22 28 -29 43 -149 162 -163 162 -3
0 -23 13 -45 29 -21 15 -54 34 -72 42 -18 7 -35 16 -38 19 -7 9 -121 46 -185
60 -62 14 -246 20 -300 9z m248 -129 c66 -12 148 -39 200 -67 18 -10 34 -17
37 -18 30 -3 220 -180 220 -205 0 -5 6 -15 13 -22 16 -17 63 -122 76 -173 18
-69 21 -98 22 -172 1 -239 -103 -439 -301 -576 -41 -28 -76 -51 -77 -50 -2 1
-18 -4 -38 -13 -19 -8 -38 -15 -42 -16 -5 -1 -37 -10 -73 -19 -78 -22 -263
-22 -323 -2 -21 7 -46 15 -55 16 -9 2 -32 10 -51 20 -19 9 -38 17 -43 17 -33
0 -238 170 -238 198 0 6 -3 12 -8 12 -19 0 -104 175 -116 240 -3 14 -8 36 -11
50 -8 31 -8 207 0 238 3 12 7 31 9 42 3 11 8 25 11 30 4 6 8 22 11 35 6 36 60
132 102 184 53 65 150 151 170 151 6 0 12 4 14 8 3 9 88 50 133 64 111 36 251
47 358 28z"/>
</g>
</svg>
